<svg width="12" height="20" viewBox="0 0 12 20" fill="none" xmlns="http://www.w3.org/2000/svg">
<path d="M2.87518 0.899998L11.3002 9.3C11.4002 9.4 11.4712 9.50833 11.5132 9.625C11.5552 9.74166 11.5758 9.86666 11.5752 10C11.5752 10.1333 11.5545 10.2583 11.5132 10.375C11.4718 10.4917 11.4008 10.6 11.3002 10.7L2.87518 19.125C2.64185 19.3583 2.35018 19.475 2.00018 19.475C1.65018 19.475 1.35018 19.35 1.10018 19.1C0.850181 18.85 0.725181 18.5583 0.725181 18.225C0.725181 17.8917 0.850181 17.6 1.10018 17.35L8.45018 10L1.10018 2.65C0.866847 2.41666 0.75018 2.129 0.75018 1.787C0.75018 1.445 0.87518 1.14933 1.12518 0.899998C1.37518 0.649998 1.66685 0.524998 2.00018 0.524998C2.33351 0.524998 2.62518 0.649998 2.87518 0.899998Z" fill="#545454"/>
</svg>
