<svg width="40" height="40" viewBox="0 0 40 40" fill="none" xmlns="http://www.w3.org/2000/svg">
<path fill-rule="evenodd" clip-rule="evenodd" d="M26.3987 13.1993C26.8543 13.6549 26.8543 14.3936 26.3987 14.8492L14.8493 26.3987C14.3937 26.8543 13.655 26.8543 13.1994 26.3987C12.7438 25.943 12.7437 25.2043 13.1994 24.7487L24.7488 13.1993C25.2044 12.7437 25.9431 12.7437 26.3987 13.1993Z" fill="#012340"/>
<path fill-rule="evenodd" clip-rule="evenodd" d="M13.199 13.1993C13.6546 12.7437 14.3933 12.7437 14.8489 13.1993L26.3983 24.7487C26.8539 25.2043 26.8539 25.943 26.3983 26.3987C25.9427 26.8543 25.204 26.8543 24.7484 26.3987L13.199 14.8492C12.7434 14.3936 12.7434 13.6549 13.199 13.1993Z" fill="#012340"/>
</svg>
