<svg width="30" height="20" viewBox="0 0 30 20" fill="none" xmlns="http://www.w3.org/2000/svg">
<path d="M15 2.66667C17.4517 2.65852 19.8559 3.34238 21.9362 4.63964C24.0165 5.93689 25.6886 7.79488 26.76 10C24.56 14.4933 20.0667 17.3333 15 17.3333C9.93337 17.3333 5.44004 14.4933 3.24004 10C4.31153 7.79488 5.98355 5.93689 8.06388 4.63964C10.1442 3.34238 12.5484 2.65852 15 2.66667ZM15 0C8.33337 0 2.64004 4.14667 0.333374 10C2.64004 15.8533 8.33337 20 15 20C21.6667 20 27.36 15.8533 29.6667 10C27.36 4.14667 21.6667 0 15 0ZM15 6.66667C15.8841 6.66667 16.7319 7.01786 17.3571 7.64298C17.9822 8.2681 18.3334 9.11594 18.3334 10C18.3334 10.8841 17.9822 11.7319 17.3571 12.357C16.7319 12.9821 15.8841 13.3333 15 13.3333C14.116 13.3333 13.2681 12.9821 12.643 12.357C12.0179 11.7319 11.6667 10.8841 11.6667 10C11.6667 9.11594 12.0179 8.2681 12.643 7.64298C13.2681 7.01786 14.116 6.66667 15 6.66667ZM15 4C11.6934 4 9.00004 6.69333 9.00004 10C9.00004 13.3067 11.6934 16 15 16C18.3067 16 21 13.3067 21 10C21 6.69333 18.3067 4 15 4Z" fill="#012340"/>
</svg>
