<svg width="5" height="16" viewBox="0 0 5 16" fill="none" xmlns="http://www.w3.org/2000/svg">
<path d="M2.50016 12C3.00849 12 3.49601 12.2107 3.85545 12.5858C4.2149 12.9609 4.41683 13.4696 4.41683 14C4.41683 14.5304 4.2149 15.0391 3.85545 15.4142C3.49601 15.7893 3.00849 16 2.50016 16C1.99183 16 1.50432 15.7893 1.14488 15.4142C0.78543 15.0391 0.583496 14.5304 0.583496 14C0.583496 13.4696 0.78543 12.9609 1.14488 12.5858C1.50432 12.2107 1.99183 12 2.50016 12ZM2.50016 6C3.00849 6 3.49601 6.21071 3.85545 6.58579C4.2149 6.96086 4.41683 7.46957 4.41683 8C4.41683 8.53043 4.2149 9.03914 3.85545 9.41421C3.49601 9.78929 3.00849 10 2.50016 10C1.99183 10 1.50432 9.78929 1.14488 9.41421C0.78543 9.03914 0.583496 8.53043 0.583496 8C0.583496 7.46957 0.78543 6.96086 1.14488 6.58579C1.50432 6.21071 1.99183 6 2.50016 6ZM2.50016 0C3.00849 0 3.49601 0.210714 3.85545 0.585786C4.2149 0.960859 4.41683 1.46957 4.41683 2C4.41683 2.53043 4.2149 3.03914 3.85545 3.41421C3.49601 3.78929 3.00849 4 2.50016 4C1.99183 4 1.50432 3.78929 1.14488 3.41421C0.78543 3.03914 0.583496 2.53043 0.583496 2C0.583496 1.46957 0.78543 0.960859 1.14488 0.585786C1.50432 0.210714 1.99183 0 2.50016 0Z" fill="#A2A2A2"/>
</svg>
