<svg width="154" height="154" viewBox="0 0 154 154" fill="none" xmlns="http://www.w3.org/2000/svg">
<path fill-rule="evenodd" clip-rule="evenodd" d="M0 51V0H51V51H0ZM12 39H39V12H12V39Z" fill="#232121"/>
<rect x="19.5" y="19.5" width="12" height="12" fill="#232121"/>
<path fill-rule="evenodd" clip-rule="evenodd" d="M102.6 51V0H153.6V51H102.6ZM114.6 39H141.6V12H114.6V39Z" fill="#232121"/>
<rect x="122.1" y="19.5" width="12" height="12" fill="#232121"/>
<path fill-rule="evenodd" clip-rule="evenodd" d="M0 153.6V102.6H51V153.6H0ZM12 141.6H39V114.6H12V141.6Z" fill="#232121"/>
<rect x="19.5" y="122.1" width="12" height="12" fill="#232121"/>
<rect x="12" y="59.0996" width="12" height="12" fill="#232121"/>
<path d="M36 83.0996V71.0996H24V83.0996H35.7V95.0996H47.7V83.0996H36Z" fill="#232121"/>
<rect x="84" y="23.0996" width="12" height="12" fill="#232121"/>
<rect x="60" y="12" width="12" height="23.1" fill="#232121"/>
<rect x="72" width="12" height="12" fill="#232121"/>
<path d="M72 35.0996V47.0996H60V59.0996H84V35.0996H72Z" fill="#232121"/>
<path d="M84 106.5V94.7996H72V71.0996H60V95.0996H72V106.8H84V118.5H108V106.5H84Z" fill="#232121"/>
<rect x="84" y="59.0996" width="12" height="24" fill="#232121"/>
<path fill-rule="evenodd" clip-rule="evenodd" d="M141.6 59.0996V70.7996H153.6V94.7996H120V83.0996H108V71.0996H119.7V59.0996H141.6ZM120 82.7996H141.6V71.0996H120V82.7996Z" fill="#232121"/>
<rect x="141.6" y="106.5" width="12" height="24" fill="#232121"/>
<rect x="96" y="83.0996" width="12" height="12" fill="#232121"/>
<rect x="108" y="118.5" width="12" height="12" fill="#232121"/>
<rect x="120" y="106.5" width="12" height="12" fill="#232121"/>
<path d="M120 130.5V153.6H132V142.5H141.6V130.5H120Z" fill="#232121"/>
<rect x="60" y="106.801" width="12" height="22.8" fill="#232121"/>
<path d="M96 141.6V129.6H72V153.6H84V141.6H95.7V153.6H107.7V141.6H96Z" fill="#232121"/>
<rect x="36" y="59.0996" width="24" height="12" fill="#232121"/>
<rect y="71.0996" width="12" height="24" fill="#232121"/>
</svg>
