<svg width="120" height="105" viewBox="0 0 120 105" fill="none" xmlns="http://www.w3.org/2000/svg">
<path d="M75 0V45H120V0H75ZM112.5 7.5V37.5H82.5V7.5H112.5ZM60 7.5V0H67.5V15H60V30H52.5V7.5H60ZM60 45V30H67.5V45H60ZM45 60V52.5H52.5V45H60V60H67.5V52.5H105V60H75V67.5H52.5V60H45ZM45 60V67.5H15V60H7.5V67.5H0V52.5H22.5V60H45ZM120 67.5H112.5V52.5H120V67.5ZM112.5 67.5H105V82.5H120V75H112.5V67.5ZM82.5 67.5H97.5V75H90V82.5H82.5V67.5ZM97.5 90V82.5H90V90H82.5V97.5H67.5V105H90V90H97.5ZM97.5 90H120V97.5H105V105H97.5V90ZM67.5 82.5V90H75V75H52.5V82.5H67.5Z" fill="#545454"/>
</svg>
