<svg width="16" height="20" viewBox="0 0 16 20" fill="none" xmlns="http://www.w3.org/2000/svg">
<path d="M8 19.85C7.81667 19.85 7.64567 19.8373 7.487 19.812C7.32833 19.7867 7.18267 19.7493 7.05 19.7C4.98333 18.9333 3.29167 17.5667 1.975 15.6C0.658333 13.6333 0 11.4667 0 9.1V4.375C0 3.95833 0.121 3.58333 0.363 3.25C0.605 2.91667 0.917333 2.675 1.3 2.525L7.3 0.275C7.53333 0.191666 7.76667 0.15 8 0.15C8.23333 0.15 8.46667 0.191666 8.7 0.275L14.7 2.525C15.0833 2.675 15.396 2.91667 15.638 3.25C15.88 3.58333 16.0007 3.95833 16 4.375V9.1C16 11.4667 15.3417 13.6333 14.025 15.6C12.7083 17.5667 11.0167 18.9333 8.95 19.7C8.81667 19.75 8.671 19.7877 8.513 19.813C8.355 19.8383 8.184 19.8507 8 19.85ZM8 17.9C9.61667 17.4 10.9667 16.4127 12.05 14.938C13.1333 13.4633 13.7667 11.8173 13.95 10H8V2.125L2 4.375V9.55C2 9.66667 2.01667 9.81667 2.05 10H8V17.9Z" fill="#545454"/>
</svg>
