<svg width="19" height="20" viewBox="0 0 19 20" fill="none" xmlns="http://www.w3.org/2000/svg">
<path d="M4.5 14H11.5V16H4.5V14ZM4.5 10H14.5V12H4.5V10ZM4.5 6H14.5V8H4.5V6ZM16.5 2H12.32C11.9 0.84 10.8 0 9.5 0C8.2 0 7.1 0.84 6.68 2H2.5C2.36 2 2.23 2.01 2.1 2.04C1.71 2.12 1.36 2.32 1.09 2.59C0.91 2.77 0.76 2.99 0.66 3.23C0.56 3.46 0.5 3.72 0.5 4V18C0.5 18.27 0.56 18.54 0.66 18.78C0.76 19.02 0.91 19.23 1.09 19.42C1.36 19.69 1.71 19.89 2.1 19.97C2.23 19.99 2.36 20 2.5 20H16.5C17.6 20 18.5 19.1 18.5 18V4C18.5 2.9 17.6 2 16.5 2ZM9.5 1.75C9.91 1.75 10.25 2.09 10.25 2.5C10.25 2.91 9.91 3.25 9.5 3.25C9.09 3.25 8.75 2.91 8.75 2.5C8.75 2.09 9.09 1.75 9.5 1.75ZM16.5 18H2.5V4H16.5V18Z" fill="#232121"/>
</svg>
